<svg width="15" height="15" viewBox="0 0 15 15" fill="none" xmlns="http://www.w3.org/2000/svg">
<g clip-path="url(#clip0_2_1939)">
<path d="M12.8632 0.936692C13.081 0.936692 13.2754 1.02225 13.4465 1.19336C13.6176 1.36447 13.7032 1.55892 13.7032 1.77669V8.77669C13.7032 9.02558 13.6176 9.23558 13.4465 9.40669C13.2754 9.5778 13.081 9.66336 12.8632 9.66336H10.6698C10.3898 9.66336 10.1254 9.72558 9.87651 9.85003C9.62762 9.97447 9.4254 10.1456 9.26984 10.3634L7.58984 12.6034L5.90984 10.3634C5.75429 10.1456 5.55207 9.97447 5.30318 9.85003C5.05429 9.72558 4.78984 9.66336 4.50984 9.66336H2.36318C2.11429 9.66336 1.90429 9.5778 1.73318 9.40669C1.56207 9.23558 1.47651 9.02558 1.47651 8.77669V1.77669C1.47651 1.55892 1.56207 1.36447 1.73318 1.19336C1.90429 1.02225 2.09873 0.936692 2.31651 0.936692H12.8632ZM2.36318 0.0500259C1.8654 0.0500259 1.4454 0.221137 1.10318 0.563359C0.760955 0.905581 0.589844 1.32558 0.589844 1.82336V8.77669C0.589844 9.27447 0.760955 9.69447 1.10318 10.0367C1.4454 10.3789 1.84984 10.55 2.31651 10.55H4.50984C4.82095 10.55 5.05429 10.6745 5.20984 10.9234L6.88984 13.1167C7.07651 13.3345 7.30984 13.4434 7.58984 13.4434C7.86984 13.4434 8.10318 13.3345 8.28984 13.1167L9.96984 10.8767C10.1254 10.6589 10.3587 10.55 10.6698 10.55H12.8632C13.3298 10.55 13.7343 10.3789 14.0765 10.0367C14.4187 9.69447 14.5898 9.27447 14.5898 8.77669V1.77669C14.5898 1.31003 14.4187 0.905581 14.0765 0.563359C13.7343 0.221137 13.3143 0.0500259 12.8165 0.0500259H2.36318ZM3.20318 3.13003C3.20318 3.00558 3.24984 2.89669 3.34318 2.80336C3.43651 2.71003 3.5454 2.66336 3.66984 2.66336H11.5098C11.6343 2.66336 11.7432 2.71003 11.8365 2.80336C11.9298 2.89669 11.9765 3.00558 11.9765 3.13003C11.9765 3.25447 11.9298 3.35558 11.8365 3.43336C11.7432 3.51114 11.6343 3.55003 11.5098 3.55003H3.66984C3.5454 3.55003 3.43651 3.51114 3.34318 3.43336C3.24984 3.35558 3.20318 3.25447 3.20318 3.13003ZM3.20318 5.27669C3.20318 5.18336 3.24984 5.09003 3.34318 4.99669C3.43651 4.90336 3.5454 4.85669 3.66984 4.85669H11.5098C11.6343 4.85669 11.7432 4.90336 11.8365 4.99669C11.9298 5.09003 11.9765 5.19114 11.9765 5.30003C11.9765 5.40891 11.9298 5.51003 11.8365 5.60336C11.7432 5.69669 11.6343 5.74336 11.5098 5.74336H3.66984C3.5454 5.74336 3.43651 5.69669 3.34318 5.60336C3.24984 5.51003 3.20318 5.41669 3.20318 5.32336V5.27669ZM3.20318 7.47003C3.20318 7.34558 3.24984 7.24447 3.34318 7.16669C3.43651 7.08891 3.5454 7.05003 3.66984 7.05003H8.00984C8.13429 7.05003 8.24318 7.08891 8.33651 7.16669C8.42984 7.24447 8.47651 7.34558 8.47651 7.47003C8.47651 7.59447 8.42984 7.70336 8.33651 7.79669C8.24318 7.89003 8.13429 7.93669 8.00984 7.93669H3.66984C3.5454 7.93669 3.43651 7.89003 3.34318 7.79669C3.24984 7.70336 3.20318 7.59447 3.20318 7.47003Z" fill="#345867"/>
</g>
<defs>
<clipPath id="clip0_2_1939">
<rect width="14" height="14" fill="white" transform="matrix(1 0 0 -1 0.589844 14.05)"/>
</clipPath>
</defs>
</svg>
